<svg xmlns="http://www.w3.org/2000/svg" xmlns:xlink="http://www.w3.org/1999/xlink" width="264" zoomAndPan="magnify" viewBox="0 0 198 40.499999" height="54" preserveAspectRatio="xMidYMid meet" version="1.0"><defs><g/></defs><g fill="#ffffff" fill-opacity="1"><g transform="translate(6.513342, 29.150006)"><g><path d="M 7.472656 -20.117188 C 6.472656 -20.117188 5.476562 -20.175781 4.476562 -20.175781 C 3.933594 -20.175781 3.359375 -20.144531 2.8125 -20.175781 C 2.417969 -20.207031 2.058594 -20.234375 1.664062 -20.234375 C 0.96875 -20.234375 0.574219 -19.996094 0.453125 -19.78125 C 0.332031 -19.570312 0.273438 -18.632812 0.273438 -18.480469 L 0.242188 -17.996094 C 0.210938 -17.636719 0.210938 -17 0.210938 -16.695312 C 0.210938 -16.273438 0.273438 -16.03125 0.363281 -15.878906 C 0.484375 -15.667969 0.636719 -15.578125 1.027344 -15.578125 L 2.691406 -15.609375 C 2.902344 -15.609375 3.175781 -15.546875 3.386719 -15.304688 C 3.933594 -14.671875 3.78125 -14.1875 3.78125 -13.519531 L 3.78125 -10.890625 C 3.78125 -10.132812 3.71875 -10.132812 3.75 -9.527344 C 3.78125 -9.105469 3.78125 -9.074219 3.8125 -8.742188 C 3.8125 -8.621094 3.8125 -8.5 3.8125 -8.378906 C 3.8125 -8.226562 3.78125 -8.105469 3.78125 -7.957031 C 3.75 -7.683594 3.78125 -7.378906 3.75 -7.109375 L 3.660156 -5.476562 C 3.628906 -5.140625 3.660156 -4.808594 3.691406 -4.476562 C 3.71875 -3.902344 3.71875 -3.328125 3.71875 -2.753906 C 3.71875 -2.570312 3.691406 -2.390625 3.691406 -2.207031 C 3.691406 -2.117188 3.691406 -1.996094 3.691406 -1.90625 L 3.660156 -0.9375 C 3.660156 -0.785156 3.71875 -0.542969 3.78125 -0.421875 C 3.960938 -0.0585938 4.203125 0 4.386719 0 L 5.414062 0 C 5.625 0 6.078125 0.0585938 6.59375 0.03125 L 7.925781 -0.0585938 C 8.105469 -0.0585938 8.257812 -0.152344 8.410156 -0.300781 C 8.589844 -0.515625 8.652344 -0.757812 8.621094 -1.453125 L 8.53125 -3.265625 C 8.5 -4.144531 8.5 -4.296875 8.53125 -4.898438 C 8.589844 -5.746094 8.558594 -5.839844 8.558594 -6.414062 L 8.558594 -8.199219 C 8.558594 -8.863281 8.46875 -9.042969 8.589844 -9.980469 C 8.742188 -11.191406 8.652344 -10.011719 8.652344 -12.21875 L 8.652344 -13.128906 C 8.652344 -14.488281 9.074219 -14.972656 9.195312 -15.09375 C 9.648438 -15.546875 10.132812 -15.515625 10.375 -15.515625 L 11.585938 -15.488281 C 11.738281 -15.488281 11.886719 -15.667969 11.917969 -15.699219 C 12.007812 -15.820312 12.070312 -16.03125 12.070312 -16.183594 C 12.070312 -16.242188 12.070312 -16.335938 12.070312 -16.394531 C 12.070312 -16.636719 12.070312 -16.847656 12.097656 -17.089844 C 12.097656 -17.273438 12.128906 -17.421875 12.128906 -17.605469 L 12.128906 -18.964844 C 12.128906 -19.238281 12.097656 -19.570312 11.828125 -19.84375 C 11.675781 -19.964844 11.402344 -20.144531 10.859375 -20.144531 Z M 7.472656 -20.117188 "/></g></g></g><g fill="#ffffff" fill-opacity="1"><g transform="translate(18.850092, 29.150006)"><g><path d="M 6.804688 -20.265625 C 5.777344 -20.265625 5.839844 -20.175781 5.414062 -20.175781 C 5.140625 -20.175781 4.929688 -20.234375 4.539062 -19.902344 C 3.839844 -19.328125 3.75 -18.632812 3.539062 -17.453125 C 2.902344 -14.097656 2.390625 -12.613281 1.84375 -10.195312 C 1.785156 -9.980469 1.632812 -9.285156 1.601562 -9.074219 C 1.359375 -7.984375 1.421875 -7.957031 1.300781 -7.5 C 1.148438 -6.957031 0.9375 -6.59375 0.785156 -5.503906 C 0.695312 -5.050781 0.695312 -4.6875 0.484375 -3.75 L 0.332031 -3.023438 C 0.273438 -2.691406 0.273438 -2.359375 0.210938 -2.058594 C 0.179688 -1.9375 0.152344 -1.84375 0.121094 -1.722656 C 0.0898438 -1.632812 0 -1.058594 0 -0.96875 C 0 -0.757812 0.152344 -0.484375 0.273438 -0.332031 C 0.542969 0 0.785156 -0.03125 1.269531 0 C 2.027344 0.0585938 2.78125 -0.0585938 3.539062 0 C 3.75 0 3.960938 0.03125 4.175781 0.03125 C 4.234375 0.03125 4.445312 0 4.507812 -0.0585938 C 4.6875 -0.210938 4.75 -0.542969 4.777344 -0.664062 C 4.960938 -1.480469 5.050781 -1.875 5.234375 -2.207031 C 5.445312 -2.601562 5.746094 -2.8125 6.109375 -2.933594 C 6.683594 -3.117188 7.957031 -3.175781 8.742188 -3.175781 L 9.527344 -3.175781 C 9.648438 -3.175781 10.558594 -3.085938 10.738281 -3.023438 C 10.859375 -2.996094 11.011719 -2.875 11.132812 -2.511719 L 11.675781 -0.9375 C 11.765625 -0.695312 11.738281 -0.574219 12.007812 -0.273438 C 12.128906 -0.121094 12.25 -0.03125 12.554688 0.03125 C 12.855469 0.0898438 13.914062 0.0898438 14.066406 0.0898438 L 14.640625 0.0585938 C 15.398438 0.03125 15.667969 0.0585938 15.941406 -0.0585938 C 16.09375 -0.121094 16.304688 -0.273438 16.425781 -0.574219 C 16.636719 -1.121094 16.425781 -1.753906 16.335938 -2.179688 L 15.757812 -4.71875 C 15.699219 -4.960938 15.699219 -5.203125 15.636719 -5.445312 C 15.578125 -5.777344 15.425781 -6.078125 15.367188 -6.414062 L 14.914062 -8.558594 C 14.792969 -9.164062 14.519531 -10.132812 14.246094 -11.765625 C 14.15625 -12.339844 14.21875 -12.582031 13.824219 -13.671875 C 13.582031 -14.367188 13.550781 -14.488281 13.492188 -14.914062 C 13.339844 -15.730469 13.21875 -16.121094 13.039062 -16.695312 L 12.765625 -17.636719 C 12.582031 -18.210938 12.523438 -18.574219 12.402344 -18.90625 C 12.28125 -19.207031 12.039062 -19.691406 11.859375 -19.875 C 11.523438 -20.207031 10.738281 -20.265625 10.40625 -20.265625 C 10.164062 -20.265625 9.890625 -20.234375 9.648438 -20.234375 C 9.257812 -20.234375 9.136719 -20.265625 8.742188 -20.265625 Z M 9.40625 -12.25 C 9.558594 -11.796875 9.5 -11.644531 9.738281 -10.738281 C 9.921875 -10.074219 10.011719 -9.800781 10.042969 -8.832031 C 10.042969 -8.5 10.042969 -8.078125 9.5 -7.863281 C 9.164062 -7.714844 8.257812 -7.714844 7.957031 -7.714844 C 7.078125 -7.714844 6.714844 -8.046875 6.625 -8.226562 C 6.535156 -8.378906 6.472656 -8.710938 6.472656 -8.894531 C 6.472656 -9.015625 6.503906 -9.105469 6.503906 -9.226562 C 6.503906 -9.285156 6.503906 -9.347656 6.503906 -9.40625 C 6.503906 -9.738281 6.683594 -10.195312 6.804688 -10.949219 C 7.019531 -12.039062 6.988281 -12.070312 7.078125 -12.523438 C 7.378906 -14.277344 7.894531 -14.640625 8.199219 -14.640625 C 8.320312 -14.640625 8.5 -14.578125 8.589844 -14.488281 C 8.742188 -14.308594 8.894531 -13.824219 8.984375 -13.550781 Z M 9.40625 -12.25 "/></g></g></g><g fill="#ffffff" fill-opacity="1"><g transform="translate(35.329338, 29.150006)"><g><path d="M 1.453125 -16.304688 C 1.480469 -15.125 1.453125 -13.976562 1.453125 -12.796875 C 1.453125 -12.28125 1.480469 -11.738281 1.480469 -11.222656 L 1.511719 -9.980469 C 1.511719 -9.46875 1.453125 -8.953125 1.453125 -8.4375 C 1.453125 -8.257812 1.453125 -8.046875 1.453125 -7.863281 C 1.480469 -7.078125 1.542969 -6.65625 1.542969 -6.078125 L 1.542969 -5.050781 C 1.542969 -4.777344 1.511719 -4.539062 1.511719 -4.265625 C 1.480469 -3.8125 1.511719 -3.328125 1.511719 -2.875 C 1.511719 -2.328125 1.453125 -1.816406 1.453125 -1.269531 C 1.453125 -1.027344 1.480469 -0.695312 1.816406 -0.332031 C 2.300781 0.179688 2.722656 0 3.328125 0 L 3.8125 0 C 4.445312 0 5.113281 0.0898438 6.019531 0.0585938 C 6.382812 0.03125 7.257812 -0.03125 8.257812 0 L 9.347656 0.03125 L 11.464844 0.03125 C 12.582031 0.03125 12.128906 0.0898438 12.613281 0.0898438 C 12.886719 0.0898438 13.15625 0.03125 13.308594 -0.0898438 C 13.582031 -0.273438 13.550781 -0.605469 13.550781 -0.847656 C 13.492188 -2.238281 13.550781 -2.058594 13.550781 -2.601562 L 13.550781 -3.597656 C 13.550781 -4.082031 13.460938 -4.355469 13.371094 -4.476562 C 13.277344 -4.566406 13.097656 -4.71875 12.703125 -4.71875 C 12.25 -4.71875 12.402344 -4.6875 11.707031 -4.6875 L 7.410156 -4.71875 C 7.230469 -4.71875 6.746094 -4.75 6.535156 -5.324219 C 6.351562 -5.839844 6.292969 -7.804688 6.292969 -8.410156 L 6.292969 -8.921875 C 6.292969 -9.257812 6.320312 -9.4375 6.382812 -9.921875 C 6.414062 -10.648438 6.441406 -11.039062 6.441406 -11.3125 C 6.441406 -11.886719 6.414062 -12.460938 6.382812 -13.039062 C 6.351562 -13.613281 6.320312 -14.1875 6.320312 -14.761719 C 6.320312 -15.367188 6.382812 -15.972656 6.382812 -16.578125 C 6.382812 -17.089844 6.320312 -17.636719 6.351562 -18.148438 L 6.414062 -18.875 C 6.441406 -19.175781 6.535156 -19.632812 6.230469 -19.964844 C 5.988281 -20.234375 5.6875 -20.234375 5.445312 -20.234375 L 3.78125 -20.234375 C 3.117188 -20.234375 2.207031 -20.417969 1.753906 -19.996094 C 1.574219 -19.84375 1.453125 -19.570312 1.421875 -19.207031 C 1.421875 -19.054688 1.421875 -18.300781 1.421875 -17.96875 Z M 1.453125 -16.304688 "/></g></g></g><g fill="#ffffff" fill-opacity="1"><g transform="translate(49.117475, 29.150006)"><g><path d="M 3.296875 -20.234375 C 2.78125 -20.265625 2.300781 -20.207031 1.996094 -19.996094 C 1.480469 -19.632812 1.453125 -18.816406 1.453125 -18.421875 L 1.453125 -17.875 C 1.480469 -17.273438 1.542969 -16.9375 1.542969 -16.636719 C 1.542969 -16.578125 1.542969 -16.304688 1.542969 -16.242188 L 1.511719 -15.488281 C 1.480469 -15.003906 1.453125 -14.761719 1.453125 -14.519531 C 1.390625 -13.761719 1.480469 -13.792969 1.480469 -13.039062 L 1.480469 -12.3125 C 1.480469 -11.132812 1.421875 -10.890625 1.421875 -10.074219 C 1.421875 -9.527344 1.453125 -9.042969 1.480469 -8.378906 C 1.574219 -7.046875 1.421875 -6.320312 1.453125 -5.414062 L 1.480469 -3.8125 C 1.480469 -3.507812 1.480469 -3.175781 1.480469 -2.875 C 1.480469 -2.660156 1.511719 -2.449219 1.511719 -2.238281 L 1.574219 -0.9375 C 1.574219 -0.757812 1.695312 -0.542969 1.753906 -0.421875 C 2.085938 0.152344 2.875 -0.03125 3.296875 -0.03125 L 3.839844 -0.03125 C 4.082031 -0.03125 4.324219 -0.03125 4.566406 -0.03125 C 4.839844 -0.03125 5.140625 0 5.414062 0 L 8.652344 0 C 9.347656 0 10.011719 -0.0585938 10.707031 -0.0585938 C 11.464844 -0.0585938 12.21875 0 12.976562 0 L 13.582031 0 C 14.699219 0 14.519531 -1.480469 14.519531 -2.753906 C 14.519531 -3.175781 14.519531 -3.71875 14.246094 -3.992188 C 14.097656 -4.144531 13.734375 -4.386719 12.855469 -4.355469 C 12.492188 -4.355469 12.097656 -4.296875 11.738281 -4.296875 C 11.039062 -4.296875 10.316406 -4.355469 9.617188 -4.324219 C 9.285156 -4.296875 8.710938 -4.265625 7.773438 -4.355469 L 7.230469 -4.417969 C 7.078125 -4.445312 6.835938 -4.476562 6.65625 -4.628906 C 6.472656 -4.777344 6.441406 -4.992188 6.414062 -5.140625 C 6.351562 -5.445312 6.351562 -5.988281 6.351562 -6.078125 L 6.351562 -7.136719 C 6.351562 -7.351562 6.351562 -7.621094 6.683594 -8.078125 C 6.867188 -8.289062 7.136719 -8.320312 7.257812 -8.320312 L 8.4375 -8.226562 C 9.347656 -8.167969 11.132812 -8.078125 11.976562 -8.078125 C 12.433594 -8.078125 12.886719 -8.078125 13.339844 -8.320312 C 13.519531 -8.410156 13.703125 -8.558594 13.761719 -8.894531 C 13.792969 -9.074219 13.855469 -9.710938 13.855469 -9.953125 L 13.855469 -11.28125 C 13.855469 -11.796875 13.761719 -12.128906 13.613281 -12.28125 C 13.398438 -12.492188 12.824219 -12.582031 12.554688 -12.582031 C 12.28125 -12.582031 11.828125 -12.492188 11.28125 -12.523438 L 10.796875 -12.554688 C 10.496094 -12.582031 10.707031 -12.613281 10.316406 -12.613281 C 9.832031 -12.613281 9.589844 -12.582031 9.226562 -12.582031 L 8.046875 -12.554688 C 7.59375 -12.554688 6.925781 -12.582031 6.59375 -13.007812 C 6.414062 -13.25 6.382812 -13.519531 6.382812 -13.703125 C 6.382812 -13.824219 6.382812 -13.945312 6.382812 -14.066406 C 6.382812 -14.1875 6.351562 -14.277344 6.351562 -14.398438 L 6.320312 -14.730469 C 6.292969 -14.972656 6.292969 -15.398438 6.59375 -15.699219 C 6.835938 -15.941406 7.289062 -16.09375 7.863281 -16.0625 L 12.371094 -15.878906 C 12.976562 -15.851562 13.1875 -16.03125 13.25 -16.09375 C 13.460938 -16.304688 13.492188 -16.726562 13.519531 -17 L 13.640625 -17.695312 C 13.671875 -17.90625 13.734375 -18.027344 13.761719 -18.390625 C 13.761719 -18.816406 13.792969 -18.753906 13.792969 -18.90625 C 13.792969 -19.359375 13.734375 -19.632812 13.582031 -19.84375 C 13.371094 -20.175781 13.15625 -20.144531 12.945312 -20.144531 L 11.859375 -20.085938 C 11.433594 -20.054688 10.859375 -20.144531 10.316406 -20.175781 C 10.132812 -20.175781 9.953125 -20.175781 9.769531 -20.175781 C 8.652344 -20.175781 7.5 -20.085938 6.382812 -20.117188 Z M 3.296875 -20.234375 "/></g></g></g><g fill="#ffffff" fill-opacity="1"><g transform="translate(64.629125, 29.150006)"><g><path d="M 3.296875 -20.234375 C 2.78125 -20.265625 2.300781 -20.207031 1.996094 -19.996094 C 1.480469 -19.632812 1.453125 -18.816406 1.453125 -18.421875 L 1.453125 -17.875 C 1.480469 -17.273438 1.542969 -16.9375 1.542969 -16.636719 C 1.542969 -16.578125 1.542969 -16.304688 1.542969 -16.242188 L 1.511719 -15.488281 C 1.480469 -15.003906 1.453125 -14.761719 1.453125 -14.519531 C 1.390625 -13.761719 1.480469 -13.792969 1.480469 -13.039062 L 1.480469 -12.3125 C 1.480469 -11.132812 1.421875 -10.890625 1.421875 -10.074219 C 1.421875 -9.527344 1.453125 -9.042969 1.480469 -8.378906 C 1.574219 -7.046875 1.421875 -6.320312 1.453125 -5.414062 L 1.480469 -3.8125 C 1.480469 -3.507812 1.480469 -3.175781 1.480469 -2.875 C 1.480469 -2.660156 1.511719 -2.449219 1.511719 -2.238281 L 1.574219 -0.9375 C 1.574219 -0.757812 1.695312 -0.542969 1.753906 -0.421875 C 2.085938 0.152344 2.875 -0.03125 3.296875 -0.03125 L 3.839844 -0.03125 C 4.082031 -0.03125 4.324219 -0.03125 4.566406 -0.03125 C 4.839844 -0.03125 5.140625 0 5.414062 0 L 8.652344 0 C 9.347656 0 10.011719 -0.0585938 10.707031 -0.0585938 C 11.464844 -0.0585938 12.21875 0 12.976562 0 L 13.582031 0 C 14.699219 0 14.519531 -1.480469 14.519531 -2.753906 C 14.519531 -3.175781 14.519531 -3.71875 14.246094 -3.992188 C 14.097656 -4.144531 13.734375 -4.386719 12.855469 -4.355469 C 12.492188 -4.355469 12.097656 -4.296875 11.738281 -4.296875 C 11.039062 -4.296875 10.316406 -4.355469 9.617188 -4.324219 C 9.285156 -4.296875 8.710938 -4.265625 7.773438 -4.355469 L 7.230469 -4.417969 C 7.078125 -4.445312 6.835938 -4.476562 6.65625 -4.628906 C 6.472656 -4.777344 6.441406 -4.992188 6.414062 -5.140625 C 6.351562 -5.445312 6.351562 -5.988281 6.351562 -6.078125 L 6.351562 -7.136719 C 6.351562 -7.351562 6.351562 -7.621094 6.683594 -8.078125 C 6.867188 -8.289062 7.136719 -8.320312 7.257812 -8.320312 L 8.4375 -8.226562 C 9.347656 -8.167969 11.132812 -8.078125 11.976562 -8.078125 C 12.433594 -8.078125 12.886719 -8.078125 13.339844 -8.320312 C 13.519531 -8.410156 13.703125 -8.558594 13.761719 -8.894531 C 13.792969 -9.074219 13.855469 -9.710938 13.855469 -9.953125 L 13.855469 -11.28125 C 13.855469 -11.796875 13.761719 -12.128906 13.613281 -12.28125 C 13.398438 -12.492188 12.824219 -12.582031 12.554688 -12.582031 C 12.28125 -12.582031 11.828125 -12.492188 11.28125 -12.523438 L 10.796875 -12.554688 C 10.496094 -12.582031 10.707031 -12.613281 10.316406 -12.613281 C 9.832031 -12.613281 9.589844 -12.582031 9.226562 -12.582031 L 8.046875 -12.554688 C 7.59375 -12.554688 6.925781 -12.582031 6.59375 -13.007812 C 6.414062 -13.25 6.382812 -13.519531 6.382812 -13.703125 C 6.382812 -13.824219 6.382812 -13.945312 6.382812 -14.066406 C 6.382812 -14.1875 6.351562 -14.277344 6.351562 -14.398438 L 6.320312 -14.730469 C 6.292969 -14.972656 6.292969 -15.398438 6.59375 -15.699219 C 6.835938 -15.941406 7.289062 -16.09375 7.863281 -16.0625 L 12.371094 -15.878906 C 12.976562 -15.851562 13.1875 -16.03125 13.25 -16.09375 C 13.460938 -16.304688 13.492188 -16.726562 13.519531 -17 L 13.640625 -17.695312 C 13.671875 -17.90625 13.734375 -18.027344 13.761719 -18.390625 C 13.761719 -18.816406 13.792969 -18.753906 13.792969 -18.90625 C 13.792969 -19.359375 13.734375 -19.632812 13.582031 -19.84375 C 13.371094 -20.175781 13.15625 -20.144531 12.945312 -20.144531 L 11.859375 -20.085938 C 11.433594 -20.054688 10.859375 -20.144531 10.316406 -20.175781 C 10.132812 -20.175781 9.953125 -20.175781 9.769531 -20.175781 C 8.652344 -20.175781 7.5 -20.085938 6.382812 -20.117188 Z M 3.296875 -20.234375 "/></g></g></g><g fill="#ffffff" fill-opacity="1"><g transform="translate(80.140776, 29.150006)"><g><path d="M 1.574219 -14.097656 L 1.601562 -11.738281 C 1.601562 -9.710938 1.574219 -10.585938 1.574219 -8.652344 L 1.574219 -7.046875 C 1.574219 -5.929688 1.632812 -5.839844 1.632812 -5.113281 C 1.632812 -4.476562 1.421875 -3.71875 1.453125 -2.875 L 1.511719 -1.695312 C 1.511719 -1.574219 1.511719 -1.421875 1.511719 -1.148438 L 1.511719 -0.636719 C 1.511719 -0.605469 1.511719 -0.273438 1.695312 -0.0898438 C 1.816406 0.03125 2.027344 0.0898438 2.058594 0.0898438 C 2.269531 0.121094 3.238281 0.121094 3.386719 0.121094 L 4.71875 0.03125 C 5.082031 0 5.082031 0.0585938 5.324219 0.0898438 C 5.382812 0.0898438 5.445312 0.0898438 5.503906 0.0898438 C 5.65625 0.0898438 5.929688 0.03125 6.050781 -0.0585938 C 6.261719 -0.242188 6.292969 -0.636719 6.292969 -0.878906 C 6.292969 -2.359375 6.230469 -1.753906 6.261719 -2.570312 L 6.382812 -7.5625 C 6.382812 -7.683594 6.382812 -7.804688 6.382812 -7.925781 C 6.382812 -8.167969 6.414062 -8.410156 6.414062 -8.652344 C 6.414062 -8.894531 6.414062 -9.558594 6.925781 -9.558594 C 7.230469 -9.558594 7.621094 -9.226562 7.773438 -9.042969 L 8.136719 -8.589844 C 8.921875 -7.59375 8.773438 -8.015625 9.316406 -7.289062 L 10.042969 -6.320312 C 10.648438 -5.535156 10.917969 -5.355469 11.011719 -5.292969 C 11.160156 -5.203125 11.433594 -5.140625 11.617188 -5.140625 C 11.796875 -5.140625 12.007812 -5.234375 12.097656 -5.324219 C 12.339844 -5.535156 12.433594 -5.746094 12.765625 -6.171875 L 13.824219 -7.441406 C 14.792969 -8.621094 14.640625 -8.46875 15.035156 -8.742188 C 15.125 -8.800781 15.246094 -8.863281 15.367188 -8.863281 C 15.398438 -8.863281 15.457031 -8.832031 15.609375 -8.710938 C 15.851562 -8.53125 15.878906 -8.136719 15.878906 -7.894531 L 15.910156 -2.570312 C 15.910156 -2.207031 15.757812 -1.453125 15.757812 -0.847656 C 15.757812 -0.453125 15.851562 -0.210938 16.0625 -0.0898438 C 16.214844 0 16.335938 0 16.484375 0 L 19.691406 0 C 20.628906 0 20.691406 -1.027344 20.691406 -1.601562 L 20.691406 -2.179688 C 20.691406 -2.875 20.539062 -2.722656 20.570312 -3.539062 L 20.597656 -4.082031 C 20.660156 -5.261719 20.691406 -5.503906 20.691406 -5.839844 L 20.691406 -6.078125 C 20.691406 -8.320312 20.570312 -7.804688 20.597656 -9.378906 C 20.628906 -10.464844 20.71875 -10.34375 20.597656 -12.765625 C 20.539062 -14.609375 20.691406 -13.914062 20.691406 -15.515625 L 20.691406 -18.359375 L 20.71875 -19.148438 C 20.75 -19.539062 20.597656 -19.722656 20.507812 -19.8125 C 20.265625 -20.085938 20.265625 -20.207031 19.085938 -20.234375 L 16.878906 -20.296875 C 16.605469 -20.296875 16.394531 -20.117188 16.304688 -20.023438 C 16.183594 -19.902344 15.851562 -19.390625 15.789062 -19.269531 L 14.820312 -17.394531 C 14.578125 -16.9375 14.125 -16.152344 14.003906 -15.941406 C 13.914062 -15.789062 13.792969 -15.667969 13.703125 -15.515625 C 13.460938 -15.183594 13.25 -14.820312 13.039062 -14.488281 L 12.613281 -13.855469 C 12.339844 -13.429688 12.21875 -13.308594 12.128906 -13.1875 C 11.917969 -12.917969 11.917969 -12.824219 11.796875 -12.644531 C 11.554688 -12.3125 11.464844 -12.28125 11.402344 -12.28125 C 11.132812 -12.28125 10.316406 -13.25 10.132812 -13.492188 C 9.527344 -14.246094 8.46875 -15.636719 8.078125 -16.242188 C 7.863281 -16.578125 6.503906 -18.695312 6.292969 -19.027344 C 5.839844 -19.753906 5.566406 -20.144531 5.050781 -20.144531 C 4.777344 -20.144531 4.539062 -20.117188 4.265625 -20.117188 C 4.144531 -20.117188 4.054688 -20.144531 3.933594 -20.144531 C 3.660156 -20.144531 3.386719 -20.117188 3.117188 -20.117188 C 2.875 -20.117188 2.660156 -20.175781 2.417969 -20.144531 C 2.027344 -20.117188 1.84375 -19.933594 1.785156 -19.875 C 1.453125 -19.539062 1.453125 -19.117188 1.421875 -18.601562 C 1.421875 -18.480469 1.421875 -18.359375 1.421875 -18.238281 C 1.421875 -18.179688 1.453125 -18.089844 1.453125 -18.027344 C 1.480469 -17.785156 1.480469 -17.542969 1.480469 -17.300781 C 1.480469 -16.214844 1.632812 -16.695312 1.601562 -15.667969 Z M 1.574219 -14.097656 "/></g></g></g><g fill="#47b99f" fill-opacity="1"><g transform="translate(111.412355, 28.160637)"><g><path d="M 11.070312 -18.296875 C 11.097656 -19.265625 11.097656 -19.566406 10.707031 -19.808594 C 10.070312 -20.203125 8.621094 -20.234375 7.800781 -20.234375 C 4.386719 -20.234375 2.511719 -19.507812 1.632812 -18.386719 C 1.210938 -17.875 0.664062 -16.785156 0.664062 -15.152344 C 0.664062 -12.824219 1.90625 -11.402344 2.390625 -10.949219 L 2.992188 -10.402344 C 3.265625 -10.160156 3.507812 -9.917969 3.78125 -9.679688 C 3.992188 -9.496094 4.171875 -9.285156 4.386719 -9.101562 C 4.6875 -8.832031 5.019531 -8.558594 5.535156 -8.164062 C 5.898438 -7.863281 6.199219 -7.621094 6.503906 -7.136719 C 6.652344 -6.894531 6.804688 -6.59375 6.804688 -6.199219 C 6.804688 -5.898438 6.652344 -5.503906 6.53125 -5.324219 C 6.046875 -4.535156 5.082031 -4.535156 4.65625 -4.535156 C 4.171875 -4.535156 4.050781 -4.566406 3.75 -4.628906 C 3.449219 -4.6875 2.175781 -4.898438 1.875 -4.898438 C 1.632812 -4.898438 1.210938 -4.808594 1.027344 -4.65625 C 0.878906 -4.535156 0.816406 -4.292969 0.816406 -4.050781 C 0.816406 -3.628906 0.9375 -3.75 0.878906 -1.996094 L 0.847656 -1.148438 C 0.847656 -0.878906 0.996094 -0.605469 1.117188 -0.484375 C 1.816406 0.179688 3.839844 0.0898438 4.808594 0.0898438 C 7.078125 0.0898438 8.105469 -0.300781 8.859375 -0.757812 C 10.011719 -1.453125 11.765625 -2.875 11.765625 -5.925781 C 11.765625 -6.683594 11.644531 -7.894531 11.160156 -8.832031 C 10.433594 -10.222656 9.285156 -11.097656 8.46875 -11.734375 L 7.773438 -12.277344 C 6.53125 -13.246094 6.289062 -13.550781 6.199219 -13.667969 C 5.835938 -14.152344 5.777344 -14.425781 5.777344 -14.667969 C 5.777344 -14.910156 5.835938 -15.210938 6.109375 -15.484375 C 6.472656 -15.878906 6.984375 -15.96875 7.621094 -15.96875 C 7.863281 -15.96875 8.136719 -15.9375 8.46875 -15.90625 C 9.011719 -15.847656 9.585938 -15.757812 10.132812 -15.757812 C 10.191406 -15.757812 10.222656 -15.757812 10.28125 -15.757812 C 10.464844 -15.757812 10.734375 -15.785156 10.886719 -15.9375 C 11.039062 -16.121094 11.070312 -16.453125 11.070312 -16.574219 C 11.070312 -17.085938 11.007812 -16.996094 11.039062 -17.539062 Z M 11.070312 -18.296875 "/></g></g></g><g fill="#47b99f" fill-opacity="1"><g transform="translate(123.840291, 28.160637)"><g><path d="M 7.46875 -20.113281 C 6.472656 -20.113281 5.472656 -20.171875 4.476562 -20.171875 C 3.929688 -20.171875 3.355469 -20.140625 2.8125 -20.171875 C 2.417969 -20.203125 2.054688 -20.234375 1.664062 -20.234375 C 0.96875 -20.234375 0.574219 -19.992188 0.453125 -19.777344 C 0.332031 -19.566406 0.273438 -18.628906 0.273438 -18.476562 L 0.242188 -17.996094 C 0.210938 -17.632812 0.210938 -16.996094 0.210938 -16.695312 C 0.210938 -16.269531 0.273438 -16.027344 0.363281 -15.878906 C 0.484375 -15.664062 0.636719 -15.574219 1.027344 -15.574219 L 2.691406 -15.605469 C 2.902344 -15.605469 3.175781 -15.542969 3.386719 -15.304688 C 3.929688 -14.667969 3.78125 -14.183594 3.78125 -13.519531 L 3.78125 -10.886719 C 3.78125 -10.132812 3.71875 -10.132812 3.75 -9.527344 C 3.78125 -9.101562 3.78125 -9.074219 3.8125 -8.738281 C 3.8125 -8.621094 3.8125 -8.5 3.8125 -8.378906 C 3.8125 -8.226562 3.78125 -8.105469 3.78125 -7.953125 C 3.75 -7.683594 3.78125 -7.378906 3.75 -7.105469 L 3.660156 -5.472656 C 3.628906 -5.140625 3.660156 -4.808594 3.691406 -4.476562 C 3.71875 -3.902344 3.71875 -3.328125 3.71875 -2.753906 C 3.71875 -2.570312 3.691406 -2.390625 3.691406 -2.207031 C 3.691406 -2.117188 3.691406 -1.996094 3.691406 -1.90625 L 3.660156 -0.9375 C 3.660156 -0.785156 3.71875 -0.542969 3.78125 -0.421875 C 3.960938 -0.0585938 4.203125 0 4.386719 0 L 5.414062 0 C 5.625 0 6.078125 0.0585938 6.59375 0.03125 L 7.921875 -0.0585938 C 8.105469 -0.0585938 8.257812 -0.152344 8.40625 -0.300781 C 8.589844 -0.515625 8.648438 -0.757812 8.621094 -1.453125 L 8.527344 -3.265625 C 8.5 -4.144531 8.5 -4.292969 8.527344 -4.898438 C 8.589844 -5.746094 8.558594 -5.835938 8.558594 -6.410156 L 8.558594 -8.195312 C 8.558594 -8.859375 8.46875 -9.042969 8.589844 -9.980469 C 8.738281 -11.191406 8.648438 -10.011719 8.648438 -12.21875 L 8.648438 -13.125 C 8.648438 -14.488281 9.074219 -14.96875 9.195312 -15.089844 C 9.648438 -15.542969 10.132812 -15.515625 10.375 -15.515625 L 11.582031 -15.484375 C 11.734375 -15.484375 11.886719 -15.664062 11.914062 -15.695312 C 12.007812 -15.816406 12.066406 -16.027344 12.066406 -16.179688 C 12.066406 -16.242188 12.066406 -16.332031 12.066406 -16.390625 C 12.066406 -16.632812 12.066406 -16.84375 12.097656 -17.085938 C 12.097656 -17.269531 12.128906 -17.421875 12.128906 -17.601562 L 12.128906 -18.960938 C 12.128906 -19.234375 12.097656 -19.566406 11.824219 -19.839844 C 11.671875 -19.960938 11.402344 -20.140625 10.855469 -20.140625 Z M 7.46875 -20.113281 "/></g></g></g><g fill="#47b99f" fill-opacity="1"><g transform="translate(136.177511, 28.160637)"><g><path d="M 1.117188 -16.84375 L 1.179688 -14.96875 L 1.179688 -11.28125 C 1.179688 -9.585938 1.238281 -9.101562 1.210938 -8.5 C 1.179688 -8.074219 1.148438 -7.683594 1.148438 -7.257812 C 1.148438 -7.105469 1.179688 -6.925781 1.179688 -6.773438 C 1.269531 -5.746094 1.300781 -5.777344 1.332031 -5.324219 C 1.390625 -4.628906 1.722656 -1.9375 4.292969 -0.664062 C 6.019531 0.179688 8.921875 0.242188 10.101562 0.242188 C 12.25 0.242188 14.003906 -0.242188 15.121094 -0.90625 C 17.480469 -2.269531 17.691406 -4.414062 17.8125 -7.078125 L 17.875 -8.46875 C 17.902344 -9.222656 17.902344 -9.917969 17.933594 -12.097656 L 17.964844 -14.003906 C 17.996094 -15.332031 17.902344 -14.425781 17.933594 -16.210938 C 17.933594 -16.453125 17.964844 -16.695312 17.964844 -16.9375 C 17.964844 -17.238281 17.996094 -17.511719 17.996094 -17.8125 L 17.964844 -19.023438 C 17.964844 -19.144531 17.933594 -19.65625 17.691406 -19.929688 C 17.632812 -20.019531 17.390625 -20.234375 16.816406 -20.234375 L 14.515625 -20.234375 C 14.152344 -20.234375 13.699219 -20.203125 13.367188 -19.929688 C 13.035156 -19.628906 12.945312 -19.023438 12.945312 -18.628906 L 12.972656 -16.601562 C 12.972656 -15.726562 12.945312 -15.425781 12.972656 -14.878906 C 12.972656 -14.578125 13.035156 -14.246094 13.035156 -13.941406 C 13.035156 -13.761719 13.035156 -13.550781 13.035156 -13.367188 C 13.003906 -12.882812 12.945312 -12.128906 12.945312 -11.402344 L 12.972656 -9.074219 C 12.972656 -8.378906 12.914062 -6.53125 12.792969 -6.167969 C 12.730469 -5.988281 12.550781 -5.445312 11.945312 -4.960938 C 11.070312 -4.265625 10.191406 -4.171875 9.648438 -4.171875 C 7.710938 -4.171875 6.894531 -4.929688 6.59375 -5.65625 C 6.410156 -6.109375 6.199219 -7.226562 6.167969 -7.894531 L 6.140625 -8.4375 C 6.078125 -9.253906 6.109375 -9.316406 6.109375 -9.769531 C 6.109375 -10.554688 6.078125 -11.371094 6.078125 -12.15625 C 6.078125 -12.945312 6.140625 -13.761719 6.140625 -14.546875 L 6.140625 -15.816406 L 6.109375 -17.207031 C 6.109375 -17.660156 6.140625 -18.265625 6.167969 -18.449219 C 6.199219 -18.8125 6.261719 -19.113281 6.261719 -19.386719 C 6.261719 -19.597656 6.199219 -19.839844 6.109375 -19.960938 C 6.019531 -20.082031 5.867188 -20.203125 5.59375 -20.203125 L 4.386719 -20.261719 C 4.023438 -20.292969 3.417969 -20.234375 2.84375 -20.203125 C 2.722656 -20.203125 2.632812 -20.203125 2.511719 -20.203125 C 2.417969 -20.203125 2.296875 -20.234375 2.207031 -20.234375 C 2.148438 -20.234375 2.117188 -20.234375 2.054688 -20.234375 C 1.695312 -20.203125 1.574219 -20.113281 1.453125 -19.992188 C 1.210938 -19.71875 1.148438 -19.476562 1.148438 -18.960938 L 1.117188 -17.660156 Z M 1.117188 -16.84375 "/></g></g></g><g fill="#47b99f" fill-opacity="1"><g transform="translate(155.257863, 28.160637)"><g><path d="M 3.960938 -20.171875 C 3.113281 -20.171875 3.71875 -20.234375 2.992188 -20.234375 C 2.449219 -20.234375 2.027344 -20.019531 1.84375 -19.871094 C 1.480469 -19.566406 1.480469 -18.871094 1.480469 -18.539062 C 1.480469 -17.933594 1.542969 -17.359375 1.542969 -16.753906 C 1.542969 -15.785156 1.421875 -14.789062 1.480469 -13.820312 L 1.542969 -12.792969 C 1.574219 -12.128906 1.480469 -11.039062 1.453125 -10.585938 C 1.453125 -10.402344 1.453125 -10.253906 1.453125 -10.070312 C 1.480469 -9.527344 1.542969 -9.011719 1.542969 -8.527344 C 1.542969 -8.40625 1.511719 -8.285156 1.511719 -8.164062 C 1.480469 -7.953125 1.453125 -7.710938 1.453125 -7.5 L 1.421875 -6.652344 C 1.390625 -5.714844 1.453125 -5.019531 1.453125 -3.691406 C 1.453125 -3.113281 1.421875 -2.570312 1.421875 -1.996094 C 1.421875 -1.390625 1.421875 -0.542969 1.964844 -0.179688 C 2.054688 -0.121094 2.328125 0 3.476562 0 L 8.46875 0 C 12.066406 0 14.96875 -1.089844 16.84375 -3.71875 C 17.691406 -4.898438 18.660156 -6.925781 18.660156 -9.222656 C 18.660156 -12.128906 18.328125 -14.367188 16.121094 -16.9375 C 14.878906 -18.386719 13.640625 -19.023438 12.128906 -19.535156 L 11.25 -19.839844 C 9.980469 -20.261719 8.738281 -20.171875 7.832031 -20.171875 Z M 8.921875 -4.476562 C 7.773438 -4.476562 6.804688 -4.628906 6.410156 -5.414062 C 6.351562 -5.535156 6.289062 -5.746094 6.261719 -6.59375 C 6.261719 -6.835938 6.261719 -7.078125 6.261719 -7.320312 C 6.261719 -7.984375 6.261719 -8.648438 6.230469 -9.316406 L 6.199219 -10.523438 L 6.289062 -12.582031 C 6.320312 -13.488281 6.289062 -14.246094 6.746094 -14.757812 C 7.167969 -15.273438 8.042969 -15.304688 8.5 -15.273438 C 10.707031 -15.363281 12.308594 -14.183594 13.09375 -13.066406 C 13.519531 -12.460938 14.003906 -11.433594 14.003906 -9.617188 C 14.003906 -8.832031 13.910156 -8.164062 13.308594 -6.804688 C 13.003906 -6.140625 12.703125 -5.535156 11.582031 -5.019531 C 11.128906 -4.808594 10.101562 -4.476562 9.558594 -4.476562 Z M 8.921875 -4.476562 "/></g></g></g><g fill="#47b99f" fill-opacity="1"><g transform="translate(174.459172, 28.160637)"><g><path d="M 5.714844 -18.144531 C 5.625 -18.328125 5.566406 -18.476562 5.503906 -18.660156 C 5.382812 -18.960938 5.261719 -19.265625 5.140625 -19.535156 C 4.988281 -19.839844 4.808594 -20.113281 4.566406 -20.203125 C 4.445312 -20.261719 4.203125 -20.292969 4.050781 -20.292969 C 3.8125 -20.292969 3.691406 -20.171875 2.601562 -20.234375 L 0.726562 -20.324219 C 0.300781 -20.355469 0.0585938 -20.203125 -0.0585938 -20.082031 C -0.210938 -19.960938 -0.273438 -19.75 -0.273438 -19.597656 C -0.273438 -19.296875 0.03125 -18.75 0.816406 -17.238281 C 1.027344 -16.816406 1.179688 -16.511719 1.359375 -15.96875 C 2.085938 -14.09375 2.238281 -14.003906 2.660156 -13.125 L 3.839844 -10.644531 C 4.535156 -9.164062 5.050781 -8.316406 5.261719 -7.742188 C 5.625 -6.773438 5.625 -5.140625 5.625 -4.628906 C 5.625 -4.476562 5.625 -4.386719 5.625 -4.144531 C 5.59375 -3.839844 5.535156 -3.234375 5.535156 -2.753906 L 5.535156 -1.996094 C 5.535156 -1.210938 5.535156 -0.878906 5.714844 -0.421875 C 6.078125 0.363281 6.261719 -0.0585938 8.589844 0.0585938 L 9.707031 0.121094 C 9.828125 0.121094 10.253906 0.152344 10.433594 -0.210938 C 10.585938 -0.515625 10.585938 -1.816406 10.585938 -2.175781 L 10.554688 -3.929688 C 10.554688 -4.777344 10.644531 -6.503906 10.949219 -7.257812 C 11.671875 -9.074219 11.765625 -8.921875 12.429688 -10.3125 L 13.003906 -11.523438 C 13.125 -11.792969 13.066406 -11.582031 13.367188 -12.339844 C 13.578125 -12.792969 13.640625 -12.824219 13.730469 -13.035156 C 13.789062 -13.15625 13.820312 -13.277344 14.367188 -14.214844 C 14.457031 -14.367188 14.578125 -14.546875 14.667969 -14.726562 C 14.699219 -14.757812 14.699219 -14.789062 14.726562 -14.820312 C 15.210938 -15.695312 14.96875 -15.484375 15.726562 -16.875 L 16.84375 -18.933594 C 16.964844 -19.175781 16.996094 -19.445312 16.996094 -19.566406 C 16.996094 -19.6875 16.9375 -19.871094 16.753906 -20.019531 C 16.542969 -20.171875 16.363281 -20.171875 16.121094 -20.171875 L 14.457031 -20.171875 C 14.003906 -20.171875 13.457031 -20.203125 12.882812 -20.203125 C 12.582031 -20.203125 12.519531 -20.203125 12.277344 -20.140625 C 12.066406 -20.082031 11.914062 -20.019531 11.613281 -19.355469 C 11.523438 -19.144531 11.460938 -19.023438 11.339844 -18.75 C 11.097656 -18.296875 10.917969 -17.996094 10.734375 -17.570312 L 9.917969 -15.757812 C 9.34375 -14.488281 9.195312 -13.882812 8.953125 -13.367188 C 8.859375 -13.1875 8.769531 -13.09375 8.679688 -12.945312 C 8.648438 -12.882812 8.589844 -12.792969 8.378906 -12.792969 C 8.316406 -12.792969 8.164062 -12.882812 8.074219 -13.035156 C 7.621094 -13.761719 6.957031 -15.574219 6.503906 -16.511719 Z M 5.714844 -18.144531 "/></g></g></g><g fill="#ffffff" fill-opacity="1"><g transform="translate(100.602426, 24.761622)"><g><path d="M 4.890625 -15.546875 L 6.375 -15.546875 L 6.375 4.921875 L 4.890625 4.921875 Z M 4.890625 -15.546875 "/></g></g></g></svg>